<svg xmlns="http://www.w3.org/2000/svg" viewBox="0 0 64 64">
  <rect width="64" height="64" rx="12" fill="#f8c805"/>
  <defs>
    <path id="small-wave" d="M25 8C27 1.8 37 1.8 39 8C39.3 8.7 38.9 9 38.2 8.9C34 8.2 30 8.2 25.8 8.9C25.1 9 24.7 8.7 25 8Z"/>
    <path id="large-wave" d="M22 16C25 6.2 39 6.2 42 16C42.3 16.9 41.8 17.2 41 17C35 16.1 29 16.1 23 17C22.2 17.2 21.7 16.9 22 16Z"/>
  </defs>
  <g fill="#000">
    <circle cx="32" cy="32" r="14"/>
    <use href="#small-wave"/>
    <use href="#large-wave"/>
    <g transform="translate(0 64) scale(1 -1)">
      <use href="#large-wave"/>
      <use href="#small-wave"/>
    </g>
  </g>
</svg>
